Coordinates
version=1
nRows=14
nColumns=24
inDegrees=yes

Units are S.I. units (second, meters, Newtons, ...)
Angles are in degrees.

endheader
time	pelvis_tilt	pelvis_list	pelvis_rotation	pelvis_tx	pelvis_ty	pelvis_tz	hip_flexion_r	hip_adduction_r	hip_rotation_r	knee_angle_r	ankle_angle_r	subtalar_angle_r	mtp_angle_r	hip_flexion_l	hip_adduction_l	hip_rotation_l	knee_angle_l	ankle_angle_l	subtalar_angle_l	mtp_angle_l	lumbar_extension	lumbar_bending	lumbar_rotation
      1.20883333	     -3.04403872	      4.31194058	     -0.13284149	      0.14852219	      1.02462907	      0.30148170	     21.91688627	     -5.38196620	     -4.59093063	    -65.88695164	     -2.44410542	     -7.30263113	     12.69739685	     11.45510471	      8.34081317	     -1.58843807	     -8.46825989	      3.40339908	     -3.77320009	      3.63986300	     -2.56655032	     -7.36780228	      0.83374131
      1.21300000	     -3.00878640	      4.21943587	     -0.21276727	      0.15363291	      1.02552611	      0.30121661	     22.37571104	     -5.22137262	     -4.46104024	    -65.44446560	     -2.29444438	     -7.72128263	     12.45537068	     10.93185581	      8.24878113	     -1.67058971	     -8.13317107	      3.52109761	     -3.58268719	      3.65073004	     -2.64265440	     -7.22584370	      0.79909470
      1.21716667	     -3.01098856	      4.13485283	     -0.27795453	      0.15874092	      1.02631507	      0.30092148	     22.86261304	     -5.07861394	     -4.34895974	    -64.97040266	     -1.96948759	     -7.97131743	     12.37785469	     10.45724625	      8.17077792	     -1.73690187	     -7.81377846	      3.59547530	     -3.50921086	      3.65392877	     -2.64319003	     -7.09753093	      0.76115100
      1.22133333	     -2.98370888	      4.01527378	     -0.33912924	      0.16382879	      1.02714521	      0.30064794	     23.29278769	     -4.88956944	     -4.24960539	    -64.41976560	     -1.71162045	     -8.24901462	      9.52525746	      9.96044980	      8.05162766	     -1.82319215	     -7.51800159	      3.76788538	     -3.26977857	      3.72354253	     -2.71077389	     -6.93436450	      0.74152609
      1.22550000	     -2.98519901	      3.92394576	     -0.40300397	      0.16893120	      1.02788595	      0.30034959	     23.74439585	     -4.73756082	     -4.14815067	    -63.82840078	     -1.47071189	     -8.49869791	      9.51609828	      9.48353155	      7.97029695	     -1.88514856	     -7.19016775	      3.79852015	     -3.22038228	      3.72252101	     -2.71031328	     -6.78614970	      0.68281222
      1.22966667	     -2.95229633	      3.81121520	     -0.45354731	      0.17399382	      1.02866034	      0.30004732	     24.13275766	     -4.55986200	     -4.05719365	    -63.16058449	     -1.33916787	     -8.79402617	      9.47803223	      8.97219946	      7.86942605	     -1.89901427	     -6.86839882	      3.88237963	     -3.12740868	      3.72060872	     -2.79210548	     -6.62306438	      0.60804992
      1.23383333	     -2.93265639	      3.68479047	     -0.49424088	      0.17906567	      1.02938680	      0.29973649	     24.51235883	     -4.37152931	     -3.98559938	    -62.43624142	     -1.15714357	     -9.01811953	      9.43506683	      8.48480586	      7.75466795	     -1.92394227	     -6.56884834	      3.96688029	     -3.03967091	      3.71766423	     -2.84479335	     -6.44897552	      0.54305801
      1.23800000	     -2.91770748	      3.56387235	     -0.52577067	      0.18412149	      1.03005606	      0.29941492	     24.88113376	     -4.19321138	     -3.92149270	    -61.66581348	     -0.97835109	     -9.21100488	      9.39073899	      8.00954085	      7.64814708	     -1.94252746	     -6.28044227	      4.05384275	     -2.96124220	      3.71434284	     -2.88844064	     -6.27788722	      0.47641824
      1.24216667	     -2.89642689	      3.44760619	     -0.54877193	      0.18916451	      1.03069003	      0.29908608	     25.22495495	     -4.02331973	     -3.86669017	    -60.84518702	     -0.81694656	     -9.38951931	      9.33843473	      7.53246773	      7.54903750	     -1.95117395	     -6.00007459	      4.14253693	     -2.88670290	      3.70979457	     -2.94298621	     -6.10725713	      0.40318477
      1.24633333	     -2.88722222	      3.32670481	     -0.55943858	      0.19419767	      1.03126747	      0.29874766	     25.56054522	     -3.85166107	     -3.82387020	    -59.96968991	     -0.66888177	     -9.54851973	      9.28190966	      7.07597375	      7.44717827	     -1.94377233	     -5.73379154	      4.23520802	     -2.82296283	      3.70455486	     -2.98510472	     -5.92986722	      0.32228338
      1.25050000	     -2.84648524	      3.19850189	     -0.56054792	      0.19921340	      1.03185611	      0.29839840	     25.83873163	     -3.67770480	     -3.79672017	    -59.03459521	     -0.55144633	     -9.70348438	      9.20622351	      6.58873738	      7.33910334	     -1.92081543	     -5.47091866	      4.33407239	     -2.76495563	      3.69696091	     -3.07085225	     -5.74628747	      0.22469999
      1.25466667	     -2.84297025	      3.07773527	     -0.55010515	      0.20422426	      1.03233392	      0.29804300	     26.14061478	     -3.51496684	     -3.77600274	    -58.05744816	     -0.42317534	     -9.82876853	      9.13797594	      6.15251624	      7.24018718	     -1.88597207	     -5.22904602	      4.42852945	     -2.72404901	      3.69023653	     -3.11260873	     -5.57189415	      0.13214763
      1.25883333	     -2.81635086	      2.97116423	     -0.52580740	      0.20922379	      1.03279898	      0.29766899	     26.39822443	     -3.37596758	     -3.76951502	    -57.02929078	     -0.36724905	     -9.99297250	      8.99816677	      5.68756028	      7.16012485	     -1.81073894	     -4.97646118	      4.53284815	     -2.70055330	      3.67476754	     -3.18767191	     -5.41539586	     -0.02454884
      1.26300000	     -2.78276135	      2.85978439	     -0.49307224	      0.21420632	      1.03323020	      0.29729286	     26.62682082	     -3.23561549	     -3.77574580	    -55.94980554	     -0.28008953	    -10.11746019	      8.83773489	      5.22683057	      7.07461865	     -1.73711643	     -4.74434833	      4.62448777	     -2.69572468	      3.65614235	     -3.27278528	     -5.25601013	     -0.15689392
